<?xml version="1.0" encoding="utf-8"?>
<!-- Generator: Adobe Illustrator 16.0.0, SVG Export Plug-In . SVG Version: 6.00 Build 0)  -->
<!DOCTYPE svg PUBLIC "-//W3C//DTD SVG 1.1//EN" "http://www.w3.org/Graphics/SVG/1.1/DTD/svg11.dtd">
<svg version="1.1" id="Layer_1" xmlns="http://www.w3.org/2000/svg" xmlns:xlink="http://www.w3.org/1999/xlink" x="0px" y="0px"
	 width="535.492px" height="438.456px" viewBox="44.254 77.686 535.492 438.456"
	 enable-background="new 44.254 77.686 535.492 438.456" xml:space="preserve">
<path fill="none" stroke="#94C353" stroke-width="30" d="M519.5,245.5c1.107-2.76,24.241-14.15,24.779-17.118
	c6.745-37.222-27.069-74.286-85.999-84.966c-0.373-0.067-32.407,26.152-32.78,26.084c-15.863-21.536-23.137-67.375-60.145-74.082
	c-33.947-6.15-63.486,23.02-85.855,35.082c-9.835-3.898-23.001-31.606-34.28-33.65c-57.209-10.367-93.564,24.423-102.72,59.65
	c-35.563,5.294-77.881,8.686-82.539,34.39c-5.863,32.35,25.343,65.912,72.302,81.151c14.119,16.089,38.581,27.748,67.73,31.763
	c15.275,20.887,33.391,48.391,50.11,80.735c-3.947,28.054-12.124,57.437-27.02,85.816c0,0,44.615,40.012,66.653,28.807
	c0,0,41.769-85.283,94.542-145.811c18.036-3.017,33.477-9.639,44.363-19.156c5.318,1.519,10.82,2.804,16.476,3.832
	c58.93,10.68,112.174-10.838,118.918-48.053C567.4,271.479,536.373,261.136,519.5,245.5z M232.342,305.053
	c4.302-0.239,8.538-0.643,12.693-1.188c2.118,2.857,4.499,5.648,7.081,8.378c0.93,12.093,1.316,25.104,0.863,38.733
	C246.651,337.385,239.38,321.398,232.342,305.053z"/>
</svg>
