<?xml version="1.0" encoding="UTF-8"?>
<svg width="176px" height="176px" viewBox="0 0 176 176" version="1.1" xmlns="http://www.w3.org/2000/svg" xmlns:xlink="http://www.w3.org/1999/xlink">
    <!-- Generator: Sketch 3.8.3 (29802) - http://www.bohemiancoding.com/sketch -->
    <title>Sociala</title>
    <desc>Created with Sketch.</desc>
    <defs></defs>
    <g id="Page-1" stroke="none" stroke-width="1" fill="none" fill-rule="evenodd">
        <g id="Sociala" transform="translate(3.000000, 3.000000)">
            <g id="Group-2-Copy-2" stroke-width="6" stroke="#000000">
                <circle id="Oval-1" cx="85" cy="85" r="85"></circle>
            </g>
            <g id="noun_138963" transform="translate(33.000000, 35.000000)" fill="#000000">
                <path d="M78.8480769,40.2144444 C82.6280769,39.9977778 85.5103846,36.8722222 85.2853846,33.2322222 C85.0603846,29.5922222 81.8146154,26.8166667 78.0346154,27.0333333 C74.2546154,27.25 71.3723077,30.3755556 71.5973077,34.0155556 C71.8211538,37.6555556 75.0680769,40.4311111 78.8480769,40.2144444 L78.8480769,40.2144444 Z M100.562308,39.2666667 L100.564615,39.27 L98.85,40.1066667 L98.8407692,40.1111111 L87.7303846,45.5322222 L88.6915385,63.0866667 C88.7180769,63.5611111 88.6869231,64.0355556 88.6015385,64.5033333 L86.4103846,76.3988889 L97.6707692,93.8011111 L90.675,98.1322222 L78.3103846,79.0255556 L78.3576923,78.9855556 L78.2665385,78.97 L80.1623077,68.8655556 L78.4546154,68.9633333 L73.6407692,80.6844444 L71.1957692,99.5977778 L63.7038462,98.7 L66.2619231,78.9177778 L66.2503846,78.9133333 L71.7842308,65.44 L70.6569231,47.1733333 L59.7426923,42.3455556 L51.8584615,48.7288889 L51.8515385,48.7211111 C51.2192308,49.2722222 50.3353846,49.5622222 49.3753846,49.3677778 C48.2538462,49.1411111 47.3607692,48.2233333 47.1923077,47.1322222 C47.0319231,46.0977778 47.4888462,45.1677778 48.2492308,44.5955556 L48.2434615,44.5888889 L58.8715385,36.0077778 L72.18,41.8944444 L84.2261538,41.18 L96.3438462,35.2677778 L91.4919231,25.8644444 L91.4942308,25.8633333 C91.1434615,25.2166667 91.0234615,24.4355556 91.3834615,23.5844444 C91.71,22.8133333 92.4092308,22.2022222 93.2480769,21.9977778 C94.6707692,21.6522222 95.9642308,22.3533333 96.5111538,23.4611111 L96.5226923,23.4555556 L103.849615,37.6555556 L100.562308,39.2666667 L100.562308,39.2666667 Z M28.9673077,40.7566667 C32.7542308,40.7466667 35.8153846,37.7822222 35.805,34.1355556 C35.7946154,30.4888889 32.7161538,27.5411111 28.9292308,27.5511111 C25.1423077,27.5611111 22.0811538,30.5255556 22.0915385,34.1722222 C22.1019231,37.8188889 25.1803846,40.7666667 28.9673077,40.7566667 L28.9673077,40.7566667 Z M47.1576923,95.1855556 L40.1619231,99.5166667 L27.8238462,80.4077778 L24.6426923,69.3277778 L11.4923077,82.26 L9.79730769,99.5977778 L2.28,98.9166667 L4.22307692,79.0344444 L16.6084615,66.8377778 L16.6084615,44.2311111 L0.649615385,22.2633333 C0.143076923,21.6022222 -0.0773076923,20.73 0.207692308,19.8255556 C0.542307692,18.77 1.56923077,17.9955556 2.71269231,17.9288889 C3.79730769,17.8666667 4.71923077,18.3866667 5.24423077,19.1666667 L21.7673077,41.9266667 L27.0057692,41.9266667 C28.8969231,42.1177778 30.5007692,43.1411111 31.4238462,44.6077778 L43.5738462,60.1166667 L44.9088462,71.7488889 C45.0588462,72.9644444 44.3676923,74.2244444 42.9842308,74.6777778 C42.1661538,74.9455556 41.2361538,74.7988889 40.5265385,74.3244444 C39.7373077,73.7966667 39.3969231,73.0744444 39.3288462,72.3433333 L38.1553846,62.18 L32.2719231,54.6666667 L32.2719231,68.0677778 C32.2719231,68.5122222 32.3353846,68.9544444 32.4588462,69.3822222 L34.0684615,74.9166667 L47.1576923,95.1855556 Z M39.0380769,17.33 C39.0380769,23.0288889 43.8519231,27.6644444 49.77,27.6644444 C55.6880769,27.6644444 60.5019231,23.0277778 60.5019231,17.33 C60.5019231,11.95 56.2096154,7.52111111 50.7484615,7.04333333 L50.7484615,1.44888889 C50.7484615,0.927777778 50.31,0.505555556 49.7688462,0.505555556 C49.2276923,0.505555556 48.7892308,0.927777778 48.7892308,1.44888889 L48.7892308,7.04333333 C43.3303846,7.52111111 39.0380769,11.95 39.0380769,17.33 L39.0380769,17.33 Z M41.8869231,13.6455556 L44.1946154,13.6455556 C44.01,14.5077778 43.8853846,15.4244444 43.8380769,16.3866667 L41.055,16.3866667 C41.1680769,15.4122222 41.4588462,14.4911111 41.8869231,13.6455556 L41.8869231,13.6455556 Z M41.8869231,21.0144444 C41.4588462,20.1688889 41.1680769,19.2477778 41.055,18.2733333 L43.8380769,18.2733333 C43.8865385,19.2355556 44.01,20.1522222 44.1946154,21.0144444 L41.8869231,21.0144444 L41.8869231,21.0144444 Z M43.1919231,22.9011111 L44.7311538,22.9011111 C44.9769231,23.5788889 45.2653846,24.2033333 45.5942308,24.7577778 C44.6815385,24.28 43.8726923,23.6455556 43.1919231,22.9011111 L43.1919231,22.9011111 Z M48.7903846,25.4755556 C48.0623077,25.0411111 47.3607692,24.1488889 46.8173077,22.9011111 L48.7903846,22.9011111 L48.7903846,25.4755556 L48.7903846,25.4755556 Z M50.7496154,25.4755556 L50.7496154,22.9011111 L52.7226923,22.9011111 C52.1792308,24.1488889 51.4788462,25.0411111 50.7496154,25.4755556 L50.7496154,25.4755556 Z M53.3446154,21.0144444 L50.7496154,21.0144444 L50.7496154,18.2733333 L53.7438462,18.2733333 C53.6896154,19.2644444 53.5476923,20.1811111 53.3446154,21.0144444 L53.3446154,21.0144444 Z M57.6530769,21.0144444 L55.3453846,21.0144444 C55.53,20.1522222 55.6546154,19.2355556 55.7019231,18.2733333 L58.485,18.2733333 C58.3719231,19.2477778 58.0811538,20.1688889 57.6530769,21.0144444 L57.6530769,21.0144444 Z M57.6530769,13.6455556 C58.0811538,14.4911111 58.3719231,15.4122222 58.485,16.3866667 L55.7019231,16.3866667 C55.6534615,15.4244444 55.53,14.5077778 55.3453846,13.6455556 L57.6530769,13.6455556 L57.6530769,13.6455556 Z M56.3492308,11.7588889 L54.8111538,11.7588889 C54.5653846,11.0811111 54.2769231,10.4566667 53.9480769,9.90222222 C54.8596154,10.38 55.6673077,11.0144444 56.3492308,11.7588889 L56.3492308,11.7588889 Z M54.81,22.9011111 L56.3480769,22.9011111 C55.6673077,23.6455556 54.8584615,24.28 53.9469231,24.7577778 C54.2757692,24.2022222 54.5642308,23.5788889 54.81,22.9011111 L54.81,22.9011111 Z M53.7438462,16.3866667 L50.7496154,16.3866667 L50.7496154,13.6455556 L53.3446154,13.6455556 C53.5476923,14.4788889 53.6896154,15.3955556 53.7438462,16.3866667 L53.7438462,16.3866667 Z M52.7226923,11.7588889 L50.7496154,11.7588889 L50.7496154,9.18444444 C51.4788462,9.61888889 52.1792308,10.5111111 52.7226923,11.7588889 L52.7226923,11.7588889 Z M48.7903846,9.18444444 L48.7903846,11.7588889 L46.8173077,11.7588889 C47.3607692,10.5111111 48.0623077,9.61888889 48.7903846,9.18444444 L48.7903846,9.18444444 Z M46.1965385,13.6455556 L48.7915385,13.6455556 L48.7915385,16.3866667 L45.7984615,16.3866667 C45.8515385,15.3955556 45.9934615,14.4788889 46.1965385,13.6455556 L46.1965385,13.6455556 Z M48.7903846,18.2733333 L48.7903846,21.0144444 L46.1953846,21.0144444 C45.9934615,20.1811111 45.8503846,19.2644444 45.7961538,18.2733333 L48.7903846,18.2733333 L48.7903846,18.2733333 Z M45.5942308,9.90222222 C45.2653846,10.4577778 44.9780769,11.0811111 44.7311538,11.7588889 L43.1919231,11.7588889 C43.8726923,11.0144444 44.6815385,10.38 45.5942308,9.90222222 L45.5942308,9.90222222 Z M49.77,29.1233333 C50.3111538,29.1233333 50.7496154,29.5455556 50.7496154,30.0666667 L50.7496154,33.2111111 C50.7496154,33.7322222 50.3111538,34.1544444 49.77,34.1544444 C49.2288462,34.1544444 48.7903846,33.7322222 48.7903846,33.2111111 L48.7903846,30.0666667 C48.7903846,29.5455556 49.2288462,29.1233333 49.77,29.1233333 L49.77,29.1233333 Z M32.2984615,17.33 C32.2984615,16.8088889 32.7369231,16.3866667 33.2780769,16.3866667 L36.5434615,16.3866667 C37.0846154,16.3866667 37.5230769,16.8088889 37.5230769,17.33 C37.5230769,17.8511111 37.0846154,18.2733333 36.5434615,18.2733333 L33.2780769,18.2733333 C32.7369231,18.2733333 32.2984615,17.8511111 32.2984615,17.33 L32.2984615,17.33 Z M62.9976923,16.3866667 L66.2619231,16.3866667 C66.8030769,16.3866667 67.2415385,16.8088889 67.2415385,17.33 C67.2415385,17.8511111 66.8030769,18.2733333 66.2619231,18.2733333 L62.9976923,18.2733333 C62.4565385,18.2733333 62.0180769,17.8511111 62.0180769,17.33 C62.0180769,16.8088889 62.4553846,16.3866667 62.9976923,16.3866667 L62.9976923,16.3866667 Z M37.4169231,6.76666667 C37.0338462,6.39888889 37.0338462,5.80111111 37.4169231,5.43333333 C37.8,5.06444444 38.4196154,5.06444444 38.8015385,5.43333333 L41.1103846,7.65666667 C41.4934615,8.02444444 41.4934615,8.62222222 41.1103846,8.99 C40.9188462,9.17444444 40.6684615,9.26666667 40.4180769,9.26666667 C40.1676923,9.26666667 39.9173077,9.17444444 39.7257692,8.99 L37.4169231,6.76666667 L37.4169231,6.76666667 Z M62.1253846,27.8922222 C62.5084615,28.26 62.5084615,28.8577778 62.1253846,29.2255556 C61.9338462,29.41 61.6834615,29.5022222 61.4330769,29.5022222 C61.1826923,29.5022222 60.9323077,29.41 60.7407692,29.2255556 L58.4319231,27.0022222 C58.0488462,26.6344444 58.0488462,26.0366667 58.4319231,25.6688889 C58.815,25.3 59.4346154,25.3 59.8165385,25.6688889 L62.1253846,27.8922222 L62.1253846,27.8922222 Z M41.1103846,25.6688889 C41.4934615,26.0377778 41.4934615,26.6344444 41.1103846,27.0022222 L38.8015385,29.2255556 C38.61,29.41 38.3596154,29.5022222 38.1092308,29.5022222 C37.8588462,29.5022222 37.6084615,29.41 37.4169231,29.2255556 C37.0338462,28.8566667 37.0338462,28.26 37.4169231,27.8922222 L39.7257692,25.6688889 C40.1076923,25.3011111 40.7284615,25.3011111 41.1103846,25.6688889 L41.1103846,25.6688889 Z M58.4307692,8.99 C58.0476923,8.62111111 58.0476923,8.02444444 58.4307692,7.65666667 L60.7396154,5.43333333 C61.1226923,5.06444444 61.7423077,5.06444444 62.1242308,5.43333333 C62.5061538,5.80222222 62.5073077,6.39888889 62.1242308,6.76666667 L59.8153846,8.99 C59.6238462,9.17444444 59.3734615,9.26666667 59.1230769,9.26666667 C58.8726923,9.26666667 58.6223077,9.17444444 58.4307692,8.99 L58.4307692,8.99 Z" id="Shape"></path>
            </g>
        </g>
    </g>
</svg>